<?xml version="1.0" standalone="no"?>
<!DOCTYPE svg PUBLIC "-//W3C//DTD SVG 20010904//EN"
 "http://www.w3.org/TR/2001/REC-SVG-20010904/DTD/svg10.dtd">
<svg version="1.0" xmlns="http://www.w3.org/2000/svg"
 width="192.000000pt" height="192.000000pt" viewBox="0 0 192.000000 192.000000"
 preserveAspectRatio="xMidYMid meet">
<metadata>
Created by potrace 1.14, written by Peter Selinger 2001-2017
</metadata>
<g transform="translate(0.000000,192.000000) scale(0.100000,-0.100000)"
fill="#000000" stroke="none">
<path d="M115 1901 c-48 -22 -79 -54 -100 -103 -13 -33 -15 -138 -15 -840 0
-759 1 -805 19 -843 22 -48 54 -79 103 -100 33 -13 138 -15 840 -15 759 0 805
1 843 19 48 22 79 54 100 103 13 33 15 138 15 838 0 700 -2 805 -15 838 -21
49 -52 81 -100 103 -38 18 -83 19 -845 19 -762 0 -807 -1 -845 -19z m842 -418
c-9 -130 -36 -680 -45 -897 l-7 -190 -137 -21 c-122 -18 -138 -19 -137 -5 0 8
6 70 13 138 l12 122 -72 0 -72 0 -31 -112 c-17 -62 -34 -115 -38 -119 -9 -8
-265 -41 -271 -35 -2 2 39 147 92 323 187 629 236 795 236 808 0 8 4 16 9 19
5 3 98 15 207 26 109 11 200 23 203 25 2 3 13 5 24 5 19 0 20 -5 14 -87z m703
45 c77 -39 108 -109 96 -212 l-7 -53 -118 -35 -118 -34 1 52 c1 89 -47 118
-113 70 -47 -35 -60 -56 -61 -97 0 -48 25 -78 114 -138 91 -63 119 -92 152
-166 24 -52 28 -72 28 -155 -1 -84 -4 -102 -31 -161 -53 -115 -141 -192 -261
-229 -78 -24 -197 -27 -248 -5 -49 20 -128 79 -148 110 -16 25 -15 28 27 108
24 45 52 97 61 115 l17 33 24 -29 c13 -15 47 -41 76 -57 86 -46 162 -35 205
31 14 21 15 31 5 65 -14 46 -53 88 -153 162 -82 60 -154 134 -168 173 -6 14
-10 51 -10 83 0 192 255 389 505 391 64 0 90 -5 125 -22z"/>
<path d="M681 1313 c-39 -149 -121 -485 -121 -498 0 -12 12 -15 54 -15 l55 0
5 53 c5 46 28 300 40 445 6 63 -17 74 -33 15z"/>
</g>
</svg>
